<svg width="36" height="35" viewBox="0 0 36 35" fill="none" xmlns="http://www.w3.org/2000/svg">
<path d="M26.9505 24.0559C26.7216 24.0558 26.5022 23.9648 26.3403 23.8029C26.1785 23.6411 26.0875 23.4216 26.0873 23.1927L26.0863 10.6204L9.64596 27.0608C9.48398 27.2228 9.26428 27.3138 9.03521 27.3138C8.80613 27.3138 8.58644 27.2228 8.42446 27.0608C8.26248 26.8988 8.17147 26.6791 8.17148 26.45C8.17148 26.221 8.26248 26.0013 8.42446 25.8393L24.8648 9.39893L12.2925 9.39791C12.0689 9.39002 11.857 9.29562 11.7016 9.1346C11.5461 8.97359 11.4593 8.75852 11.4593 8.53472C11.4593 8.31092 11.5461 8.09586 11.7016 7.93484C11.857 7.77382 12.0689 7.67942 12.2925 7.67153L26.9505 7.67153C27.1794 7.67167 27.3989 7.76266 27.5607 7.92451C27.7226 8.08636 27.8136 8.30583 27.8137 8.53472L27.8137 23.1927C27.8136 23.4216 27.7226 23.6411 27.5607 23.8029C27.3989 23.9648 27.1794 24.0558 26.9505 24.0559Z" fill="black"/>
</svg>
