<svg width="36" height="35" viewBox="0 0 36 35" fill="none" xmlns="http://www.w3.org/2000/svg">
<path d="M11.4441 26.451C11.4442 26.2221 11.5352 26.0027 11.6971 25.8408C11.8589 25.679 12.0784 25.588 12.3073 25.5878L24.8796 25.5868L8.43921 9.14645C8.27723 8.98446 8.18623 8.76477 8.18623 8.5357C8.18623 8.30662 8.27723 8.08693 8.43921 7.92495C8.60119 7.76297 8.82088 7.67197 9.04996 7.67197C9.27903 7.67197 9.49873 7.76297 9.66071 7.92495L26.1011 24.3653L26.1021 11.793C26.11 11.5694 26.2044 11.3575 26.3654 11.2021C26.5264 11.0466 26.7415 10.9598 26.9653 10.9598C27.1891 10.9598 27.4041 11.0466 27.5652 11.2021C27.7262 11.3575 27.8206 11.5694 27.8285 11.793L27.8285 26.451C27.8283 26.6799 27.7373 26.8994 27.5755 27.0612C27.4136 27.2231 27.1942 27.3141 26.9653 27.3142L12.3073 27.3142C12.0784 27.3141 11.8589 27.2231 11.6971 27.0612C11.5352 26.8994 11.4442 26.6799 11.4441 26.451Z" fill="#F9F9F9"/>
</svg>
