<svg width="20" height="25" viewBox="0 0 20 25" fill="none" xmlns="http://www.w3.org/2000/svg">
<path fill-rule="evenodd" clip-rule="evenodd" d="M7.37276 21.4036C7.01304 20.3281 6.86916 18.9454 7.55261 18.2156C8.27204 17.5243 9.09938 17.6779 9.60297 17.3706L9.99866 16.9865C10.0346 16.9481 9.99866 16.9481 10.0706 16.8713C10.4663 17.217 10.3224 17.409 11.2936 17.6011C13.2001 17.9852 13.4159 19.56 12.8044 21.4036C12.7325 20.9811 12.7684 20.597 12.6605 20.1361C12.5526 19.7136 12.4087 19.4063 12.1569 19.2527C11.8692 19.099 11.3656 19.1375 11.0059 19.0606C10.5742 18.9454 10.3584 18.8302 10.0706 18.5997C9.20729 19.3295 8.48786 18.9454 7.98426 19.2527C7.37276 19.6752 7.4447 20.8659 7.37276 21.4036ZM1.97707 15.6038C1.9411 17.217 2.12096 18.5613 2.66053 19.9441C2.91233 20.597 3.55981 21.7877 4.02744 22.287C4.24326 22.5175 4.38714 22.7095 4.60297 22.9016V21.4804L5.68212 22.7095C7.9483 25.1293 10.4303 25.8975 13.272 23.7082L13.8835 23.1704C14.0634 22.9784 14.2433 22.8248 14.4591 22.6327L15.4663 21.442L15.5023 22.94C15.6102 22.8632 15.6821 22.7479 15.79 22.6327C16.1138 22.2102 16.2577 22.095 16.5814 21.5957C17.5886 20.0209 18.2001 17.4858 18.0202 15.5654L16.9411 16.9097L15.7541 18.1772C15.5022 18.4077 15.1066 18.8302 14.8548 18.9454C14.3152 17.3322 13.272 15.7574 11.7253 15.4117C11.0059 15.2581 10.5382 15.527 10.0346 15.8343C9.78283 15.6806 9.67492 15.527 9.3152 15.4502C8.30801 15.1813 7.30082 15.9111 6.65334 16.5256C6.54542 16.6408 6.47348 16.7177 6.36556 16.8329C6.29362 16.9481 6.22168 17.0249 6.11377 17.1402C5.28643 18.3309 5.39434 18.6381 5.17852 18.9838C4.96269 18.8686 4.85478 18.7534 4.67492 18.5997C4.27923 18.2925 3.77563 17.7931 3.41592 17.409L1.97707 15.6038Z" fill="#131313"/>
<path fill-rule="evenodd" clip-rule="evenodd" d="M3.81274 8.34476C4.35232 8.42157 5.14368 8.80567 5.53936 9.18976C5.71922 9.3434 5.79116 9.45862 5.97102 9.61227C6.25879 9.49704 6.54655 9.3434 6.87029 9.18976C7.91346 8.76725 9.02857 8.53681 10.1796 8.53681C11.9063 8.53681 13.0933 9.03613 14.4243 9.65067C14.5681 9.53545 14.9638 8.80567 16.1509 8.57521C15.935 6.92361 15.0717 4.4654 14.2444 3.12108C13.3091 1.66151 12.194 0.624461 10.0717 0.00991497C9.64008 -0.105321 8.02137 0.816509 7.6257 1.08538C6.18684 2.08402 5.25159 3.65881 4.60411 5.38723C4.31634 6.23224 3.95663 7.38452 3.81274 8.34476Z" fill="#131313"/>
<path fill-rule="evenodd" clip-rule="evenodd" d="M0.179871 9.15131C0.287791 9.45858 0.683468 10.0731 0.863325 10.3036C1.4029 11.1486 1.58275 11.3406 2.15829 12.0704C2.23024 12.1857 2.19426 12.1857 2.37412 12.2241C2.84174 12.3393 3.34534 12.3777 3.81297 12.4545C7.94966 13.0691 12.1943 13.0307 16.3309 12.4545C16.6547 12.3777 17.554 12.3393 17.7338 12.1472C18.5971 11.2638 19.2086 10.1884 19.7122 8.95926C19.0648 8.80562 17.2662 9.30494 16.6907 9.5354C16.259 9.68904 15.8273 9.9195 15.4317 10.1115C13.741 11.0718 14.7122 10.9566 13.3094 10.4572C12.9856 10.3036 12.6619 10.2268 12.3022 10.1115C10.7554 9.68904 9.24462 9.68904 7.69785 10.1499C7.23023 10.3036 6.25901 10.6877 5.89929 10.995C5.71944 10.8797 5.53958 10.6877 5.35973 10.5725C5.1439 10.4188 5.00002 10.3036 4.78419 10.1499C3.27339 9.26654 1.97843 9.11289 0.179871 9.15131Z" fill="#131313"/>
<path fill-rule="evenodd" clip-rule="evenodd" d="M0.0703125 7.76908C0.142259 7.88431 0.0343391 7.76908 0.142259 7.8075C0.142259 7.8075 0.214196 7.8075 0.25017 7.8075C0.681821 7.84591 1.11348 7.8075 1.58111 7.88431C1.90485 7.92272 2.51636 8.03796 2.80412 8.03796C2.91204 7.61545 3.01995 7.23135 3.12786 6.80885C3.27175 6.42476 3.4516 5.96385 3.52355 5.61816C2.51635 5.69498 1.25737 6.15589 0.609884 6.88567C0.35808 7.15454 0.25017 7.38499 0.0703125 7.76908Z" fill="#131313"/>
<path fill-rule="evenodd" clip-rule="evenodd" d="M19.8571 7.88428C20.037 7.84588 19.9291 7.88428 19.965 7.76905C19.8931 7.65383 19.8212 7.50019 19.7492 7.34655C19.4255 6.88563 19.1737 6.65519 18.6701 6.3479C18.2744 6.07904 17.1953 5.65653 16.6197 5.65653C16.4758 5.65653 16.5118 5.61813 16.5118 5.73336C16.7636 6.04063 17.1233 7.53859 17.2312 8.07633C17.483 8.07633 18.1305 7.92269 18.4543 7.88428C18.9938 7.84588 19.3895 7.88428 19.8571 7.88428Z" fill="#131313"/>
<path fill-rule="evenodd" clip-rule="evenodd" d="M0.251804 7.80738C0.215831 7.80738 0.143894 7.80738 0.143894 7.80738C0.0359735 7.76897 0.143894 7.88419 0.0719469 7.76897C-3.12948e-08 7.80738 0.0359735 7.65374 0 7.88419L0.251804 7.80738Z" fill="#131313"/>
<path fill-rule="evenodd" clip-rule="evenodd" d="M19.8555 7.88378L19.9994 7.92219C19.9994 7.65333 19.9994 7.88378 19.9634 7.76855C19.9274 7.88378 20.0353 7.84538 19.8555 7.88378Z" fill="#131313"/>
<path fill-rule="evenodd" clip-rule="evenodd" d="M16.5098 5.73241C16.5098 5.61719 16.4738 5.65559 16.6177 5.65559L16.4738 5.61719C16.4738 5.84764 16.4379 5.61719 16.5098 5.73241Z" fill="#131313"/>
</svg>
